<svg id="Layer_1" enable-background="new 0 0 512.016 512.016" height="512" viewBox="0 0 512.016 512.016" width="512" xmlns="http://www.w3.org/2000/svg"><g><path d="m241 315.245h30v30.001h-30z" transform="matrix(.707 -.707 .707 .707 -158.539 277.751)"/><path d="m101.577 455.339h30v30.001h-30z" transform="matrix(.707 -.707 .707 .707 -298.439 220.196)"/><path d="m380.424 455.339h30v30.002h-30z" transform="matrix(.707 -.707 .707 .707 -216.765 417.38)"/><path d="m440.757 310.481-30.334 15.748v-34.177h-30v34.176l-30.333-15.747-13.822 26.627 26.599 13.809-26.599 13.808 13.822 26.627 30.333-15.747v34.177h30v-34.178l30.334 15.748 13.823-26.627-26.599-13.808 26.599-13.809z"/><path d="m161.91 310.481-30.333 15.747v-34.176h-30v34.177l-30.334-15.748-13.823 26.627 26.599 13.809-26.599 13.808 13.823 26.627 30.334-15.748v34.178h30v-34.177l30.333 15.747 13.822-26.627-26.598-13.808 26.598-13.809z"/><path d="m301.341 412.716-30.334 15.747v-34.177h-30v34.177l-30.333-15.747-13.822 26.627 26.598 13.808-26.598 13.808 13.822 26.627 30.333-15.747v34.177h30v-34.177l30.334 15.747 13.823-26.627-26.599-13.808 26.599-13.808z"/><path d="m471.221 121.709c-12.725-13.131-28.952-21.769-46.631-25.003-8.547-42.066-45.844-73.427-89.926-73.427-16.914 0-33.382 4.672-47.661 13.359-20.772-23.174-50.474-36.638-82.08-36.638h-2.591c-55.917 0-102.245 41.835-109.321 95.853-43.123 5.065-76.693 41.835-76.693 86.296 0 47.912 38.979 86.891 86.891 86.891h305.599c47.911 0 86.891-38.979 86.891-86.891-.001-22.687-8.694-44.152-24.478-60.44zm-62.414 117.33h-305.599c-31.37 0-56.891-25.521-56.891-56.891s25.521-56.891 56.891-56.891h18.865v-15c0-44.254 36.004-80.258 80.258-80.258h2.591c26.82 0 51.764 13.327 66.723 35.651l9.504 14.183 12.842-11.251c11.265-9.869 25.709-15.304 40.673-15.304 32.589 0 59.668 25.456 61.647 57.953l.83 13.616 13.634.463c30.797 1.046 54.922 26.011 54.922 56.837.001 31.372-25.521 56.892-56.89 56.892z"/></g></svg>